<?xml version="1.0" encoding="utf-8"?>
<!-- Generator: Adobe Illustrator 15.0.0, SVG Export Plug-In . SVG Version: 6.00 Build 0)  -->
<!DOCTYPE svg PUBLIC "-//W3C//DTD SVG 1.1//EN" "http://www.w3.org/Graphics/SVG/1.1/DTD/svg11.dtd">
<svg version="1.1" xmlns="http://www.w3.org/2000/svg" xmlns:xlink="http://www.w3.org/1999/xlink" x="0px" y="0px"
	 width="453.54px" height="453.54px" viewBox="0 0 453.54 453.54" enable-background="new 0 0 453.54 453.54" xml:space="preserve">
<g id="guide" fill="#24292e">
	<path d="M385.209,280.556c-12.685-2.03-52.34-8.376-64.924-10.39v-15.647
		c31.996-13.961,53.086-45.788,53.086-81.104V137.14h44.238c4.886,0,8.848-3.962,8.848-8.848v-10.14
		c0-21.242-17.281-38.523-38.522-38.523h-15.004C368.477,34.981,330.695,0,284.895,0s-83.582,34.981-88.035,79.629h-15.004
		c-21.242,0-38.523,17.281-38.523,38.523v10.139c0,4.886,3.961,8.848,8.848,8.848h44.238v36.275
		c0,35.317,21.092,67.146,53.086,81.104v15.647c-13.546,2.167-51.294,8.209-64.924,10.39c-38.997,6.243-67.791,39.916-67.791,79.5
		v84.097c0,4.886,3.961,8.848,8.848,8.848h318.516c4.886,0,8.848-3.962,8.848-8.848v-84.097
		C453,320.563,424.296,286.813,385.209,280.556L385.209,280.556z M284.895,17.695c36.031,0,65.838,27.068,70.208,61.934H214.685
		C219.057,44.764,248.863,17.695,284.895,17.695z M214.113,173.414v-36.275h31.853c4.886,0,8.848-3.962,8.848-8.848
		s-3.962-8.848-8.848-8.848c-9.12,0-74.17,0-84.938,0v-1.292c0-11.484,9.343-20.828,20.828-20.828h206.08
		c11.484,0,20.827,9.343,20.827,20.828v1.292c-8.534,0-73.853,0-83.167,0c-4.886,0-8.848,3.962-8.848,8.848
		s3.962,8.848,8.848,8.848h30.081v36.275c0,38.678-31.309,70.781-70.781,70.781C245.426,244.195,214.113,212.095,214.113,173.414
		L214.113,173.414z M259.75,286.446c4.292-0.686,7.449-4.39,7.449-8.736v-17.603c5.79,1.175,11.705,1.783,17.695,1.783
		c5.991,0,11.906-0.608,17.695-1.783v17.603c0,4.347,3.157,8.051,7.449,8.736l29.365,4.698l-54.51,72.683l-54.51-72.683
		L259.75,286.446z M303.475,435.305h-36.275v-40.699h36.275V435.305z M134.484,360.056c0-31.035,22.245-57.122,52.891-62.028
		l23.261-3.722l61.951,82.604h-14.235c-4.885,0-8.848,3.962-8.848,8.848v49.547H187.57v-49.547c0-4.886-3.961-8.848-8.848-8.848
		s-8.848,3.962-8.848,8.848v49.547h-35.391V360.056z M435.305,435.305h-35.391v-49.547c0-4.886-3.962-8.848-8.848-8.848
		s-8.848,3.962-8.848,8.848v49.547H321.17v-49.547c0-4.886-3.962-8.848-8.848-8.848h-15.12l61.95-82.604l23.26,3.722
		c30.648,4.908,52.893,30.993,52.893,62.028V435.305z"/>
	<path d="M315.531,191.114c2.446-4.23,0.999-9.642-3.231-12.088c-4.229-2.446-9.642-0.999-12.087,3.231
		c-3.157,5.46-9.026,8.852-15.318,8.852s-12.161-3.392-15.317-8.852c-2.445-4.229-7.855-5.678-12.088-3.231
		c-4.23,2.446-5.679,7.858-3.231,12.088c6.309,10.912,18.048,17.691,30.637,17.691
		C297.484,208.805,309.223,202.025,315.531,191.114L315.531,191.114z"/>
	<path d="M8.848,435.305c-4.887,0-8.848,3.962-8.848,8.848S3.961,453,8.848,453h53.086
		c4.887,0,8.848-3.962,8.848-8.848s-3.961-8.848-8.848-8.848H44.238V290.886l127.153-50.862c3.359-1.344,5.562-4.597,5.562-8.215
		c0-3.617-2.202-6.873-5.562-8.215L44.238,172.732v-47.095c0-4.886-3.961-8.848-8.848-8.848s-8.848,3.962-8.848,8.848v309.668
		H8.848z M144.282,231.809L44.238,271.825v-80.034L144.282,231.809z"/>
	<circle cx="285.779" cy="128.291" r="8.848"/>
</g>
</svg>
