<?xml version="1.0" encoding="utf-8"?>
<!-- Generator: Adobe Illustrator 15.0.0, SVG Export Plug-In . SVG Version: 6.00 Build 0)  -->
<!DOCTYPE svg PUBLIC "-//W3C//DTD SVG 1.1//EN" "http://www.w3.org/Graphics/SVG/1.1/DTD/svg11.dtd">
<svg version="1.1" xmlns="http://www.w3.org/2000/svg" xmlns:xlink="http://www.w3.org/1999/xlink" x="0px" y="0px"
	 width="453.54px" height="453.54px" viewBox="0 0 453.54 453.54" enable-background="new 0 0 453.54 453.54" xml:space="preserve">
<g id="taxi" fill="#24292e">
	<path d="M26.543,357.289c-4.88,0-8.848-3.968-8.848-8.848v-53.697c0-31.375,25.523-56.898,56.898-56.898h303.813
		c31.374,0,56.898,25.523,56.898,56.898v53.697c0,4.88-3.969,8.848-8.848,8.848 M180.05,374.984h150.852v26.542
		c0,20.492,16.669,37.161,37.161,37.161c20.491,0,37.16-16.669,37.16-37.161v-26.542h21.234c14.637,0,26.543-11.906,26.543-26.543
		v-53.697c0-22.822-10.31-43.268-26.509-56.961c14.775-0.937,26.509-13.244,26.509-28.25c0-15.611-12.702-28.313-28.313-28.313
		h-22.651l-16.158-65.791c-6.864-27.943-31.75-47.459-60.526-47.459H296.88V45.979C296.88,28.346,282.537,14,264.9,14h-77.098
		c-17.633,0-31.98,14.346-31.98,31.979v21.991h-28.174c-28.776,0-53.667,19.517-60.527,47.459l-16.158,65.791H28.313
		C12.701,181.221,0,193.922,0,209.533c0,15.006,11.734,27.313,26.508,28.25C10.31,251.477,0,271.922,0,294.744v53.697
		c0,14.637,11.906,26.543,26.543,26.543h21.234v26.542c0,20.492,16.669,37.161,37.16,37.161s37.16-16.669,37.16-37.161v-26.542
			M104.402,374.984v26.542c0,10.735-8.73,19.465-19.465,19.465s-19.465-8.729-19.465-19.465v-26.542H104.402z M424.688,198.916
		c5.855,0,10.617,4.762,10.617,10.617s-4.762,10.617-10.617,10.617H411.6l-5.216-21.234H424.688z M173.518,45.979
		c0-7.876,6.408-14.284,14.285-14.284h77.102c7.873,0,14.28,6.408,14.28,14.284v21.991H173.518V45.979z M17.695,209.533
		c0-5.855,4.763-10.617,10.617-10.617h18.303l-5.215,21.234H28.313C22.458,220.15,17.695,215.388,17.695,209.533z M325.352,122.785
		c3.47,0,6.47,2.35,7.3,5.719l22.506,91.646H227.215l97.366-97.366H325.352z M202.694,219.645
		c-0.162,0.164-0.308,0.336-0.456,0.505H132.58l97.365-97.366h69.61L202.694,219.645z M107.554,220.15h-9.711l22.509-91.646
		c0.826-3.369,3.826-5.719,7.296-5.719h77.271L107.554,220.15z M373.378,220.15l-23.543-95.866
		c-2.775-11.305-12.844-19.199-24.483-19.199H127.648c-11.64,0-21.708,7.894-24.483,19.199L79.622,220.15h-5.029
		c-5.263,0-10.403,0.557-15.362,1.6L84.305,119.65c4.915-20.007,22.737-33.984,43.343-33.984h197.704
		c20.605,0,38.43,13.977,43.344,33.984l25.073,102.101c-4.959-1.043-10.099-1.6-15.362-1.6H373.378z M387.526,401.526
		c0,10.735-8.729,19.465-19.464,19.465c-10.735,0-19.465-8.729-19.465-19.465v-26.542h38.929V401.526z"/>
	<path d="M302.406,319.648c1.656-2.347,2.074-5.351,1.113-8.06l-15.041-42.469c-1.251-3.532-4.59-5.893-8.34-5.893
		H172.861c-3.746,0-7.088,2.36-8.339,5.893l-15.041,42.469c-0.958,2.709-0.543,5.713,1.116,8.06
		c1.659,2.347,4.352,3.743,7.227,3.743h137.36C298.052,323.392,300.748,321.995,302.406,319.648z M170.338,305.695l8.775-24.772
		h94.774l8.774,24.772H170.338z"/>
	<path d="M47.777,297.567c0,18.539,15.083,33.62,33.621,33.62s33.621-15.081,33.621-33.62
		s-15.083-33.621-33.621-33.621S47.777,279.028,47.777,297.567z M97.324,297.567c0,8.781-7.144,15.926-15.926,15.926
		c-8.782,0-15.926-7.145-15.926-15.926c0-8.782,7.144-15.927,15.926-15.927C90.18,281.641,97.324,288.785,97.324,297.567z"/>
	<path d="M371.602,331.188c18.538,0,33.621-15.081,33.621-33.62s-15.083-33.621-33.621-33.621
		c-18.539,0-33.621,15.082-33.621,33.621S353.063,331.188,371.602,331.188z M371.602,281.641c8.781,0,15.925,7.145,15.925,15.927
		c0,8.781-7.144,15.926-15.925,15.926c-8.782,0-15.926-7.145-15.926-15.926C355.676,288.785,362.819,281.641,371.602,281.641z"/>
</g>
</svg>
