<?xml version="1.0" encoding="utf-8"?>
<!-- Generator: Adobe Illustrator 15.0.0, SVG Export Plug-In . SVG Version: 6.00 Build 0)  -->
<!DOCTYPE svg PUBLIC "-//W3C//DTD SVG 1.1//EN" "http://www.w3.org/Graphics/SVG/1.1/DTD/svg11.dtd">
<svg version="1.1" xmlns="http://www.w3.org/2000/svg" xmlns:xlink="http://www.w3.org/1999/xlink" x="0px" y="0px"
	 width="453.54px" height="453.54px" viewBox="0 0 453.54 453.54" enable-background="new 0 0 453.54 453.54" xml:space="preserve">
<g id="bike" fill="#24292e">
	<path d="M440.713,369.975c-4.507-1.895-9.692,0.22-11.588,4.726c-12.432,29.546-41.176,48.638-73.229,48.638
		c-38.459,0-70.615-27.482-77.873-63.839c0.007-0.14,0.021-0.276,0.021-0.418c0-3.897-0.512-7.677-1.462-11.279
		c-0.063-1.284-0.097-2.575-0.097-3.873c0-33.214,20.5-61.726,49.51-73.56l21.384,75.958c1.099,3.901,4.648,6.452,8.512,6.452
		c0.794,0,1.601-0.108,2.402-0.333c4.704-1.325,7.443-6.212,6.119-10.915l-21.384-75.963c4.189-0.686,8.486-1.048,12.867-1.048
		c31.596,0,60.179,18.716,72.818,47.682c1.954,4.479,7.169,6.523,11.648,4.568c4.479-1.954,6.524-7.168,4.57-11.646
		c-15.455-35.415-50.404-58.299-89.037-58.299c-6.04,0-11.95,0.559-17.688,1.62l-0.758-2.694
		c-2.561-9.093-4.471-18.343-5.73-27.683c0-0.003-0.001-0.007-0.001-0.011c-0.729-5.406-1.243-10.84-1.531-16.292
		c0.805,4.058,4.386,7.116,8.679,7.116h12.089c16.736,0,30.353-13.617,30.353-30.353s-13.616-30.353-30.353-30.353h-26.541
		L256.56,88.048c3.521,1.022,7.235,1.581,11.08,1.581c21.953,0,39.814-17.861,39.814-39.814S289.593,10,267.64,10
		s-39.814,17.861-39.814,39.814c0,7.481,2.076,14.483,5.68,20.468c-6.331-2.883-13.257-4.412-20.421-4.412
		c-13.171,0-25.554,5.13-34.868,14.443l-72.446,72.446c-0.019,0.02-0.034,0.042-0.054,0.062
		c-0.233,0.237-0.454,0.489-0.662,0.755c-0.023,0.031-0.05,0.059-0.073,0.09c-0.009,0.012-0.019,0.021-0.026,0.033
		c-4.6,6.118-7.227,13.446-7.783,21.351H79.782c-4.886,0-8.848,3.962-8.848,8.848v10.827c0,18.423,14.988,33.412,33.412,33.412
		h10.49l-4.537,19.592c-4.316-0.59-8.72-0.901-13.195-0.901C43.561,246.824,0,290.386,0,343.929
		c0,32.78,16.33,61.816,41.281,79.408H8.848c-4.887,0-8.848,3.962-8.848,8.848s3.961,8.848,8.848,8.848h88.256
		c48.007,0,87.983-35.021,95.738-80.855c0.541,4.367,4.259,7.751,8.772,7.751h60.182c5.798,22.721,19.629,42.261,38.277,55.409
		H243.9c-4.886,0-8.848,3.962-8.848,8.848s3.962,8.848,8.848,8.848h111.997c39.192,0,74.339-23.344,89.54-59.471
		C447.331,377.058,445.216,371.871,440.713,369.975z M329.905,165.871h21.049c6.979-0.001,12.657,5.676,12.657,12.657
		c0,6.979-5.678,12.657-12.657,12.657h-12.089c-4.577,0-8.343,3.477-8.801,7.933c-0.106-2.667-0.159-5.336-0.159-8.009V165.871
		L329.905,165.871z M313.067,210.438h-88.675c-1.418-1.691-2.904-3.333-4.479-4.908l-27.884-27.885l36.736-36.736l83.698,60.627
		C312.605,204.508,312.806,207.478,313.067,210.438z M300.011,228.134l-54.215,49.111l-5.165-32.101
		c-0.011-0.063-0.021-0.123-0.033-0.185c-1.068-5.848-2.816-11.482-5.178-16.826H300.011z M267.64,27.693
		c12.197,0,22.119,9.923,22.119,22.119s-9.922,22.119-22.119,22.119c-12.196,0-22.119-9.923-22.119-22.119
		S255.442,27.693,267.64,27.693z M190.728,92.825c5.972-5.972,13.91-9.261,22.355-9.261c8.445,0,16.383,3.289,22.358,9.261
		l76.77,68.18v18.499l-79.176-57.351c-1.558-1.128-3.376-1.682-5.188-1.682c-2.279,0-4.545,0.878-6.258,2.592l-44.685,44.685
		l-29.527-8.152l-18.353-5.067L190.728,92.825z M104.346,210.439c-8.665-0.001-15.716-7.051-15.716-15.716v-1.979h10.62
		c1.967,6.521,5.17,12.559,9.313,17.695H104.346z M97.104,423.337c-43.786,0-79.409-35.621-79.409-79.408
		c0-43.788,35.623-79.409,79.409-79.409c3.105,0,6.168,0.185,9.183,0.534l-17.802,76.88c-0.609,2.627,0.015,5.39,1.693,7.501
		c1.679,2.112,4.229,3.342,6.926,3.342h78.913C171.603,392.413,137.899,423.337,97.104,423.337z M108.234,335.081l15.291-66.035
		c28.165,9.966,49.079,35.396,52.492,66.035H108.234z M127.54,251.715l5.432-23.458l42.406,24.486l13.925,60.703
		C179.663,284.366,156.626,261.34,127.54,251.715z M191.762,245.03c-0.549-2.395-2.07-4.454-4.199-5.684l-57.278-33.075
		c-7.308-4.22-13.011-12.54-14.882-21.713c-1.125-5.511-0.79-10.73,0.916-15.182l25.767,7.114l32.827,9.063l32.49,32.49
		c8.213,8.213,13.666,18.587,15.773,30.008l10.75,66.793c-0.04,0-0.078-0.002-0.118-0.002h-26.03v-0.001L191.762,245.03z
			M210.462,350.232v-17.695h23.345c11.535,0,21.375,7.396,25.027,17.695H210.462z M260.831,324.093
		c-2.564-1.985-5.348-3.696-8.313-5.087l-3.368-20.924l67.842-61.453c0.991,4.67,2.129,9.312,3.426,13.916l0.761,2.702
		C290.726,264.944,267.612,291.557,260.831,324.093z"/>
	<path d="M444.152,335.081c-4.887,0-8.848,3.961-8.848,8.848l-0.001,0.414c-0.014,4.887,3.936,8.859,8.822,8.874
		c0.009,0,0.018,0,0.026,0c4.874,0,8.833-3.944,8.848-8.823l0.001-0.465C453,339.042,449.039,335.081,444.152,335.081z"/>
	<path d="M215.353,425.932c-1.646-1.653-3.919-2.592-6.256-2.592c-2.327,0-4.609,0.938-6.255,2.592
		c-1.645,1.646-2.592,3.921-2.592,6.256c0,2.326,0.947,4.609,2.592,6.255c1.646,1.645,3.929,2.593,6.255,2.593
		c2.327,0,4.61-0.947,6.256-2.593c1.654-1.646,2.592-3.929,2.592-6.255C217.944,429.852,217.006,427.577,215.353,425.932z"/>
</g>
</svg>
