<?xml version="1.0" encoding="utf-8"?>
<!-- Generator: Adobe Illustrator 15.0.0, SVG Export Plug-In . SVG Version: 6.00 Build 0)  -->
<!DOCTYPE svg PUBLIC "-//W3C//DTD SVG 1.1//EN" "http://www.w3.org/Graphics/SVG/1.1/DTD/svg11.dtd">
<svg version="1.1" xmlns="http://www.w3.org/2000/svg" xmlns:xlink="http://www.w3.org/1999/xlink" x="0px" y="0px"
	 width="453.54px" height="453.54px" viewBox="0 0 453.54 453.54" enable-background="new 0 0 453.54 453.54" xml:space="preserve">
<g id="horse" fill="#24292e">
	<path d="M445.628,98.104l-5.4-6.481C423.028,70.982,403.667,52,382.683,35.209
		c-1.746-1.388-2.747-3.47-2.747-5.699V7.307c0-4.033-3.267-7.307-7.307-7.307c-20.282,0-39.879,4.325-57.75,12.29l-1.022-1.023
		C306.703,4.106,296.788,0,286.661,0c-12.626,0-24.447,6.196-31.622,16.571L214.16,75.614c-9.98,14.416-15.666,31.067-16.68,48.464
		c-0.709,0.037-1.418,0.131-2.142,0.131h-29.204c-2.981,0-5.962-0.365-8.863-1.088l-53.213-13.305
		c-0.577-0.146-1.169-0.22-1.768-0.22c-14.891,0-29.007,3.273-41.786,9.016c-6.605-5.757-15.103-9.016-23.973-9.016
		C16.388,109.597,0,125.985,0,146.129c0,8.87,3.259,17.368,9.016,23.973C3.273,182.881,0,196.997,0,211.887v14.16
		c0,10.587,1.308,21.167,3.873,31.446c2.279,9.119,3.434,18.508,3.434,27.911l0.015,20.985L0,416.468v29.226
		C0,449.733,3.266,453,7.307,453h58.452h43.838c4.041,0,7.307-3.267,7.307-7.307v-21.919c0-1.439-0.431-2.857-1.228-4.056
		l-12.823-19.23l13.831-55.317c0.263-1.052,0.292-2.141,0.081-3.2l-12.458-62.302c26.705,8.358,54.418,12.589,82.702,12.589h11.522
		c1.893,0,3.777-0.095,5.656-0.285l-6.912,124.495v29.226c0,4.04,3.266,7.307,7.306,7.307h36.533h21.919h43.839
		c4.04,0,7.307-3.267,7.307-7.307v-21.919c0-1.586-0.512-3.12-1.461-4.384l-20.605-27.479l-6.766-108.289
		c22.621-15.68,36.139-41.274,36.139-68.863v-12.371c0-7.459,1.198-14.824,3.55-21.897l16.506-49.523
		c2.134,0.329,4.296,0.548,6.496,0.548c8.753,0,16.906,3.923,22.372,10.755l11.084,13.846c6.063,7.584,15.116,11.931,24.826,11.931
		c8.374,0,16.572-3.397,22.49-9.316l14.868-14.875c6.014-6.006,9.323-14,9.323-22.489v-2.901
		C453,111.043,450.384,103.81,445.628,98.104L445.628,98.104z M373.55,46.623c10.272,8.22,20.129,16.987,29.525,26.23
		c-11.026,7.38-20.736,16.6-28.663,27.195l-0.848-0.285c-31.783-10.594-55.807-35.699-65.423-67.621
		c17.179-10.112,36.701-16.162,57.181-17.324v14.686C365.322,36.204,368.318,42.443,373.55,46.623L373.55,46.623z M226.179,83.929
		l40.88-59.05c4.449-6.43,11.777-10.266,19.603-10.266c5.151,0,10.163,1.797,14.27,4.866
		c-18.719,10.997-34.969,26.289-47.199,45.198l-27.721,42.845c-3.434,5.312-8.103,9.52-13.48,12.392
		C214.094,107.025,218.704,94.728,226.179,83.929L226.179,83.929z M166.134,138.823h16.527v36.532c0,4.026-3.273,7.306-7.306,7.306
		h-58.452c-4.033,0-7.307-3.28-7.307-7.306v-49.092l44.139,11.033C157.79,138.311,161.962,138.823,166.134,138.823L166.134,138.823
		z M14.613,146.129c0-12.084,9.834-21.919,21.919-21.919c3.368,0,6.627,0.833,9.593,2.28
		c-11.617,7.665-21.568,17.616-29.233,29.233C15.446,152.756,14.613,149.497,14.613,146.129z M58.452,344.616
		c0-4.063,0.321-8.073,0.87-12.041l6.137,18.427l-7.007,28.034V344.616z M102.115,343.229l-14.211,56.858
		c-0.497,1.994-0.139,4.105,1.008,5.823l13.378,20.078v12.398H73.064v-14.612c0-1.133-0.263-2.258-0.767-3.267l-6.101-12.201
		l13.955-55.829c0.344-1.352,0.285-2.762-0.153-4.084l-13.465-40.404c2.301-4.991,5.027-9.806,8.278-14.357l1.117-1.593
		c4.216-5.904,7.701-12.181,10.544-18.704c0.606,0.233,1.198,0.489,1.804,0.723L102.115,343.229z M299.564,426.207v12.18h-29.226
		v-14.612c0-1.439-0.431-2.857-1.228-4.056l-13.386-20.077v-96.169l15.563-10.374l6.37,101.903c0.089,1.417,0.593,2.79,1.447,3.923
		L299.564,426.207z M324.194,104.139l-3.938-5.903l-12.158,8.103l3.938,5.903c4.033,6.05,9.425,10.872,15.62,14.182l-16.476,49.443
		c-2.864,8.57-4.311,17.492-4.311,26.522v12.371c0,23.197-11.522,44.745-30.833,57.611l-31.673,21.115
		c-2.032,1.359-3.252,3.639-3.252,6.079v102.29c0,1.439,0.432,2.857,1.227,4.056l13.386,20.078v12.398h-14.612h-29.226
		l-0.014-21.51l7.138-128.499c7.43-2.856,14.284-7.196,19.962-12.866l-10.332-10.332c-7.927,7.92-18.901,12.466-30.11,12.466
		h-11.522c-32.966,0-65.093-6.139-95.685-18.105c2.375-8.702,3.661-17.733,3.661-26.946v-13.4H80.371v13.4
		c0,18.391-5.648,36.006-16.352,50.984l-1.118,1.593c-12.472,17.44-19.063,37.993-19.063,59.445v49.933
		c0,1.132,0.263,2.257,0.767,3.266l13.846,27.684v12.889H14.605l-0.007-21.437l7.321-110.079v-21.467
		c0-10.587-1.308-21.166-3.873-31.446c-2.279-9.119-3.434-18.508-3.434-27.911v-14.16c0-45.877,35.444-83.549,80.371-87.283v50.75
		c0,12.084,9.834,21.919,21.919,21.919h21.919V226.5h-14.613v14.613h43.839V226.5h-14.613v-29.226h21.919
		c12.084,0,21.919-9.835,21.919-21.919v-36.656c16.673-0.629,31.906-9.163,41.011-23.242l27.721-42.845
		c8.052-12.443,18.04-23.139,29.408-31.863c11.464,33.463,37.249,59.774,70.808,71.874c-1.265,2.229-2.478,4.486-3.588,6.802
		c-4.617-1.637-9.542-2.521-14.598-2.521C338.435,116.903,329.528,112.132,324.194,104.139L324.194,104.139z M438.387,121.368
		c0,4.588-1.79,8.906-5.033,12.158l-3.953,3.96c-10.887-4.545-20.407-12.1-26.969-21.942l-1.797-2.696l-12.158,8.11l1.798,2.688
		c7.036,10.558,16.754,19.143,27.977,24.937c-6.949,6.693-19.297,5.955-25.347-1.6l-11.076-13.846
		c-1.93-2.412-4.1-4.559-6.437-6.474c8.271-17.638,21.554-32.733,38.029-43.144c5.348,5.684,10.587,11.471,15.57,17.455
		l5.399,6.481c2.586,3.091,3.996,7,3.996,11.011V121.368z"/>
	<path d="M354.363,43.839c-6.043,0-10.96,4.917-10.96,10.959s4.917,10.96,10.96,10.96
		c6.042,0,10.959-4.917,10.959-10.96S360.405,43.839,354.363,43.839z"/>
</g>
</svg>
