<?xml version="1.0" encoding="utf-8"?>
<!DOCTYPE svg PUBLIC "-//W3C//DTD SVG 1.1//EN" "http://www.w3.org/Graphics/SVG/1.1/DTD/svg11.dtd">
<svg version="1.1" xmlns="http://www.w3.org/2000/svg" xmlns:xlink="http://www.w3.org/1999/xlink">
<defs>
<style>
		.img { display: none }
		.img:target { display: inline }
</style>
<g id="guide" width="453.54px" height="453.54px" viewBox="0 0 453.54 453.54">
	<path d="M385.209,280.556c-12.685-2.03-52.34-8.376-64.924-10.39v-15.647
		c31.996-13.961,53.086-45.788,53.086-81.104V137.14h44.238c4.886,0,8.848-3.962,8.848-8.848v-10.14
		c0-21.242-17.281-38.523-38.522-38.523h-15.004C368.477,34.981,330.695,0,284.895,0s-83.582,34.981-88.035,79.629h-15.004
		c-21.242,0-38.523,17.281-38.523,38.523v10.139c0,4.886,3.961,8.848,8.848,8.848h44.238v36.275
		c0,35.317,21.092,67.146,53.086,81.104v15.647c-13.546,2.167-51.294,8.209-64.924,10.39c-38.997,6.243-67.791,39.916-67.791,79.5
		v84.097c0,4.886,3.961,8.848,8.848,8.848h318.516c4.886,0,8.848-3.962,8.848-8.848v-84.097
		C453,320.563,424.296,286.813,385.209,280.556L385.209,280.556z M284.895,17.695c36.031,0,65.838,27.068,70.208,61.934H214.685
		C219.057,44.764,248.863,17.695,284.895,17.695z M214.113,173.414v-36.275h31.853c4.886,0,8.848-3.962,8.848-8.848
		s-3.962-8.848-8.848-8.848c-9.12,0-74.17,0-84.938,0v-1.292c0-11.484,9.343-20.828,20.828-20.828h206.08
		c11.484,0,20.827,9.343,20.827,20.828v1.292c-8.534,0-73.853,0-83.167,0c-4.886,0-8.848,3.962-8.848,8.848
		s3.962,8.848,8.848,8.848h30.081v36.275c0,38.678-31.309,70.781-70.781,70.781C245.426,244.195,214.113,212.095,214.113,173.414
		L214.113,173.414z M259.75,286.446c4.292-0.686,7.449-4.39,7.449-8.736v-17.603c5.79,1.175,11.705,1.783,17.695,1.783
		c5.991,0,11.906-0.608,17.695-1.783v17.603c0,4.347,3.157,8.051,7.449,8.736l29.365,4.698l-54.51,72.683l-54.51-72.683
		L259.75,286.446z M303.475,435.305h-36.275v-40.699h36.275V435.305z M134.484,360.056c0-31.035,22.245-57.122,52.891-62.028
		l23.261-3.722l61.951,82.604h-14.235c-4.885,0-8.848,3.962-8.848,8.848v49.547H187.57v-49.547c0-4.886-3.961-8.848-8.848-8.848
		s-8.848,3.962-8.848,8.848v49.547h-35.391V360.056z M435.305,435.305h-35.391v-49.547c0-4.886-3.962-8.848-8.848-8.848
		s-8.848,3.962-8.848,8.848v49.547H321.17v-49.547c0-4.886-3.962-8.848-8.848-8.848h-15.12l61.95-82.604l23.26,3.722
		c30.648,4.908,52.893,30.993,52.893,62.028V435.305z"/>
	<path d="M315.531,191.114c2.446-4.23,0.999-9.642-3.231-12.088c-4.229-2.446-9.642-0.999-12.087,3.231
		c-3.157,5.46-9.026,8.852-15.318,8.852s-12.161-3.392-15.317-8.852c-2.445-4.229-7.855-5.678-12.088-3.231
		c-4.23,2.446-5.679,7.858-3.231,12.088c6.309,10.912,18.048,17.691,30.637,17.691
		C297.484,208.805,309.223,202.025,315.531,191.114L315.531,191.114z"/>
	<path d="M8.848,435.305c-4.887,0-8.848,3.962-8.848,8.848S3.961,453,8.848,453h53.086
		c4.887,0,8.848-3.962,8.848-8.848s-3.961-8.848-8.848-8.848H44.238V290.886l127.153-50.862c3.359-1.344,5.562-4.597,5.562-8.215
		c0-3.617-2.202-6.873-5.562-8.215L44.238,172.732v-47.095c0-4.886-3.961-8.848-8.848-8.848s-8.848,3.962-8.848,8.848v309.668
		H8.848z M144.282,231.809L44.238,271.825v-80.034L144.282,231.809z"/>
	<circle cx="285.779" cy="128.291" r="8.848"/>
</g>

<g id="bike" width="453.54px" height="453.54px" viewBox="0 0 453.54 453.54">
	<path d="M440.713,369.975c-4.507-1.895-9.692,0.22-11.588,4.726c-12.432,29.546-41.176,48.638-73.229,48.638
		c-38.459,0-70.615-27.482-77.873-63.839c0.007-0.14,0.021-0.276,0.021-0.418c0-3.897-0.512-7.677-1.462-11.279
		c-0.063-1.284-0.097-2.575-0.097-3.873c0-33.214,20.5-61.726,49.51-73.56l21.384,75.958c1.099,3.901,4.648,6.452,8.512,6.452
		c0.794,0,1.601-0.108,2.402-0.333c4.704-1.325,7.443-6.212,6.119-10.915l-21.384-75.963c4.189-0.686,8.486-1.048,12.867-1.048
		c31.596,0,60.179,18.716,72.818,47.682c1.954,4.479,7.169,6.523,11.648,4.568c4.479-1.954,6.524-7.168,4.57-11.646
		c-15.455-35.415-50.404-58.299-89.037-58.299c-6.04,0-11.95,0.559-17.688,1.62l-0.758-2.694
		c-2.561-9.093-4.471-18.343-5.73-27.683c0-0.003-0.001-0.007-0.001-0.011c-0.729-5.406-1.243-10.84-1.531-16.292
		c0.805,4.058,4.386,7.116,8.679,7.116h12.089c16.736,0,30.353-13.617,30.353-30.353s-13.616-30.353-30.353-30.353h-26.541
		L256.56,88.048c3.521,1.022,7.235,1.581,11.08,1.581c21.953,0,39.814-17.861,39.814-39.814S289.593,10,267.64,10
		s-39.814,17.861-39.814,39.814c0,7.481,2.076,14.483,5.68,20.468c-6.331-2.883-13.257-4.412-20.421-4.412
		c-13.171,0-25.554,5.13-34.868,14.443l-72.446,72.446c-0.019,0.02-0.034,0.042-0.054,0.062
		c-0.233,0.237-0.454,0.489-0.662,0.755c-0.023,0.031-0.05,0.059-0.073,0.09c-0.009,0.012-0.019,0.021-0.026,0.033
		c-4.6,6.118-7.227,13.446-7.783,21.351H79.782c-4.886,0-8.848,3.962-8.848,8.848v10.827c0,18.423,14.988,33.412,33.412,33.412
		h10.49l-4.537,19.592c-4.316-0.59-8.72-0.901-13.195-0.901C43.561,246.824,0,290.386,0,343.929
		c0,32.78,16.33,61.816,41.281,79.408H8.848c-4.887,0-8.848,3.962-8.848,8.848s3.961,8.848,8.848,8.848h88.256
		c48.007,0,87.983-35.021,95.738-80.855c0.541,4.367,4.259,7.751,8.772,7.751h60.182c5.798,22.721,19.629,42.261,38.277,55.409
		H243.9c-4.886,0-8.848,3.962-8.848,8.848s3.962,8.848,8.848,8.848h111.997c39.192,0,74.339-23.344,89.54-59.471
		C447.331,377.058,445.216,371.871,440.713,369.975z M329.905,165.871h21.049c6.979-0.001,12.657,5.676,12.657,12.657
		c0,6.979-5.678,12.657-12.657,12.657h-12.089c-4.577,0-8.343,3.477-8.801,7.933c-0.106-2.667-0.159-5.336-0.159-8.009V165.871
		L329.905,165.871z M313.067,210.438h-88.675c-1.418-1.691-2.904-3.333-4.479-4.908l-27.884-27.885l36.736-36.736l83.698,60.627
		C312.605,204.508,312.806,207.478,313.067,210.438z M300.011,228.134l-54.215,49.111l-5.165-32.101
		c-0.011-0.063-0.021-0.123-0.033-0.185c-1.068-5.848-2.816-11.482-5.178-16.826H300.011z M267.64,27.693
		c12.197,0,22.119,9.923,22.119,22.119s-9.922,22.119-22.119,22.119c-12.196,0-22.119-9.923-22.119-22.119
		S255.442,27.693,267.64,27.693z M190.728,92.825c5.972-5.972,13.91-9.261,22.355-9.261c8.445,0,16.383,3.289,22.358,9.261
		l76.77,68.18v18.499l-79.176-57.351c-1.558-1.128-3.376-1.682-5.188-1.682c-2.279,0-4.545,0.878-6.258,2.592l-44.685,44.685
		l-29.527-8.152l-18.353-5.067L190.728,92.825z M104.346,210.439c-8.665-0.001-15.716-7.051-15.716-15.716v-1.979h10.62
		c1.967,6.521,5.17,12.559,9.313,17.695H104.346z M97.104,423.337c-43.786,0-79.409-35.621-79.409-79.408
		c0-43.788,35.623-79.409,79.409-79.409c3.105,0,6.168,0.185,9.183,0.534l-17.802,76.88c-0.609,2.627,0.015,5.39,1.693,7.501
		c1.679,2.112,4.229,3.342,6.926,3.342h78.913C171.603,392.413,137.899,423.337,97.104,423.337z M108.234,335.081l15.291-66.035
		c28.165,9.966,49.079,35.396,52.492,66.035H108.234z M127.54,251.715l5.432-23.458l42.406,24.486l13.925,60.703
		C179.663,284.366,156.626,261.34,127.54,251.715z M191.762,245.03c-0.549-2.395-2.07-4.454-4.199-5.684l-57.278-33.075
		c-7.308-4.22-13.011-12.54-14.882-21.713c-1.125-5.511-0.79-10.73,0.916-15.182l25.767,7.114l32.827,9.063l32.49,32.49
		c8.213,8.213,13.666,18.587,15.773,30.008l10.75,66.793c-0.04,0-0.078-0.002-0.118-0.002h-26.03v-0.001L191.762,245.03z
			M210.462,350.232v-17.695h23.345c11.535,0,21.375,7.396,25.027,17.695H210.462z M260.831,324.093
		c-2.564-1.985-5.348-3.696-8.313-5.087l-3.368-20.924l67.842-61.453c0.991,4.67,2.129,9.312,3.426,13.916l0.761,2.702
		C290.726,264.944,267.612,291.557,260.831,324.093z"/>
	<path d="M444.152,335.081c-4.887,0-8.848,3.961-8.848,8.848l-0.001,0.414c-0.014,4.887,3.936,8.859,8.822,8.874
		c0.009,0,0.018,0,0.026,0c4.874,0,8.833-3.944,8.848-8.823l0.001-0.465C453,339.042,449.039,335.081,444.152,335.081z"/>
	<path d="M215.353,425.932c-1.646-1.653-3.919-2.592-6.256-2.592c-2.327,0-4.609,0.938-6.255,2.592
		c-1.645,1.646-2.592,3.921-2.592,6.256c0,2.326,0.947,4.609,2.592,6.255c1.646,1.645,3.929,2.593,6.255,2.593
		c2.327,0,4.61-0.947,6.256-2.593c1.654-1.646,2.592-3.929,2.592-6.255C217.944,429.852,217.006,427.577,215.353,425.932z"/>
</g>

<g id="taxi" width="453.54px" height="453.54px" viewBox="0 0 453.54 453.54">
	<path d="M26.543,357.289c-4.88,0-8.848-3.968-8.848-8.848v-53.697c0-31.375,25.523-56.898,56.898-56.898h303.813
		c31.374,0,56.898,25.523,56.898,56.898v53.697c0,4.88-3.969,8.848-8.848,8.848 M180.05,374.984h150.852v26.542
		c0,20.492,16.669,37.161,37.161,37.161c20.491,0,37.16-16.669,37.16-37.161v-26.542h21.234c14.637,0,26.543-11.906,26.543-26.543
		v-53.697c0-22.822-10.31-43.268-26.509-56.961c14.775-0.937,26.509-13.244,26.509-28.25c0-15.611-12.702-28.313-28.313-28.313
		h-22.651l-16.158-65.791c-6.864-27.943-31.75-47.459-60.526-47.459H296.88V45.979C296.88,28.346,282.537,14,264.9,14h-77.098
		c-17.633,0-31.98,14.346-31.98,31.979v21.991h-28.174c-28.776,0-53.667,19.517-60.527,47.459l-16.158,65.791H28.313
		C12.701,181.221,0,193.922,0,209.533c0,15.006,11.734,27.313,26.508,28.25C10.31,251.477,0,271.922,0,294.744v53.697
		c0,14.637,11.906,26.543,26.543,26.543h21.234v26.542c0,20.492,16.669,37.161,37.16,37.161s37.16-16.669,37.16-37.161v-26.542
			M104.402,374.984v26.542c0,10.735-8.73,19.465-19.465,19.465s-19.465-8.729-19.465-19.465v-26.542H104.402z M424.688,198.916
		c5.855,0,10.617,4.762,10.617,10.617s-4.762,10.617-10.617,10.617H411.6l-5.216-21.234H424.688z M173.518,45.979
		c0-7.876,6.408-14.284,14.285-14.284h77.102c7.873,0,14.28,6.408,14.28,14.284v21.991H173.518V45.979z M17.695,209.533
		c0-5.855,4.763-10.617,10.617-10.617h18.303l-5.215,21.234H28.313C22.458,220.15,17.695,215.388,17.695,209.533z M325.352,122.785
		c3.47,0,6.47,2.35,7.3,5.719l22.506,91.646H227.215l97.366-97.366H325.352z M202.694,219.645
		c-0.162,0.164-0.308,0.336-0.456,0.505H132.58l97.365-97.366h69.61L202.694,219.645z M107.554,220.15h-9.711l22.509-91.646
		c0.826-3.369,3.826-5.719,7.296-5.719h77.271L107.554,220.15z M373.378,220.15l-23.543-95.866
		c-2.775-11.305-12.844-19.199-24.483-19.199H127.648c-11.64,0-21.708,7.894-24.483,19.199L79.622,220.15h-5.029
		c-5.263,0-10.403,0.557-15.362,1.6L84.305,119.65c4.915-20.007,22.737-33.984,43.343-33.984h197.704
		c20.605,0,38.43,13.977,43.344,33.984l25.073,102.101c-4.959-1.043-10.099-1.6-15.362-1.6H373.378z M387.526,401.526
		c0,10.735-8.729,19.465-19.464,19.465c-10.735,0-19.465-8.729-19.465-19.465v-26.542h38.929V401.526z"/>
	<path d="M302.406,319.648c1.656-2.347,2.074-5.351,1.113-8.06l-15.041-42.469c-1.251-3.532-4.59-5.893-8.34-5.893
		H172.861c-3.746,0-7.088,2.36-8.339,5.893l-15.041,42.469c-0.958,2.709-0.543,5.713,1.116,8.06
		c1.659,2.347,4.352,3.743,7.227,3.743h137.36C298.052,323.392,300.748,321.995,302.406,319.648z M170.338,305.695l8.775-24.772
		h94.774l8.774,24.772H170.338z"/>
	<path d="M47.777,297.567c0,18.539,15.083,33.62,33.621,33.62s33.621-15.081,33.621-33.62
		s-15.083-33.621-33.621-33.621S47.777,279.028,47.777,297.567z M97.324,297.567c0,8.781-7.144,15.926-15.926,15.926
		c-8.782,0-15.926-7.145-15.926-15.926c0-8.782,7.144-15.927,15.926-15.927C90.18,281.641,97.324,288.785,97.324,297.567z"/>
	<path d="M371.602,331.188c18.538,0,33.621-15.081,33.621-33.62s-15.083-33.621-33.621-33.621
		c-18.539,0-33.621,15.082-33.621,33.621S353.063,331.188,371.602,331.188z M371.602,281.641c8.781,0,15.925,7.145,15.925,15.927
		c0,8.781-7.144,15.926-15.925,15.926c-8.782,0-15.926-7.145-15.926-15.926C355.676,288.785,362.819,281.641,371.602,281.641z"/>
</g>

<g id="horse" width="453.54px" height="453.54px" viewBox="0 0 453.54 453.54">
	<path d="M445.628,98.104l-5.4-6.481C423.028,70.982,403.667,52,382.683,35.209
		c-1.746-1.388-2.747-3.47-2.747-5.699V7.307c0-4.033-3.267-7.307-7.307-7.307c-20.282,0-39.879,4.325-57.75,12.29l-1.022-1.023
		C306.703,4.106,296.788,0,286.661,0c-12.626,0-24.447,6.196-31.622,16.571L214.16,75.614c-9.98,14.416-15.666,31.067-16.68,48.464
		c-0.709,0.037-1.418,0.131-2.142,0.131h-29.204c-2.981,0-5.962-0.365-8.863-1.088l-53.213-13.305
		c-0.577-0.146-1.169-0.22-1.768-0.22c-14.891,0-29.007,3.273-41.786,9.016c-6.605-5.757-15.103-9.016-23.973-9.016
		C16.388,109.597,0,125.985,0,146.129c0,8.87,3.259,17.368,9.016,23.973C3.273,182.881,0,196.997,0,211.887v14.16
		c0,10.587,1.308,21.167,3.873,31.446c2.279,9.119,3.434,18.508,3.434,27.911l0.015,20.985L0,416.468v29.226
		C0,449.733,3.266,453,7.307,453h58.452h43.838c4.041,0,7.307-3.267,7.307-7.307v-21.919c0-1.439-0.431-2.857-1.228-4.056
		l-12.823-19.23l13.831-55.317c0.263-1.052,0.292-2.141,0.081-3.2l-12.458-62.302c26.705,8.358,54.418,12.589,82.702,12.589h11.522
		c1.893,0,3.777-0.095,5.656-0.285l-6.912,124.495v29.226c0,4.04,3.266,7.307,7.306,7.307h36.533h21.919h43.839
		c4.04,0,7.307-3.267,7.307-7.307v-21.919c0-1.586-0.512-3.12-1.461-4.384l-20.605-27.479l-6.766-108.289
		c22.621-15.68,36.139-41.274,36.139-68.863v-12.371c0-7.459,1.198-14.824,3.55-21.897l16.506-49.523
		c2.134,0.329,4.296,0.548,6.496,0.548c8.753,0,16.906,3.923,22.372,10.755l11.084,13.846c6.063,7.584,15.116,11.931,24.826,11.931
		c8.374,0,16.572-3.397,22.49-9.316l14.868-14.875c6.014-6.006,9.323-14,9.323-22.489v-2.901
		C453,111.043,450.384,103.81,445.628,98.104L445.628,98.104z M373.55,46.623c10.272,8.22,20.129,16.987,29.525,26.23
		c-11.026,7.38-20.736,16.6-28.663,27.195l-0.848-0.285c-31.783-10.594-55.807-35.699-65.423-67.621
		c17.179-10.112,36.701-16.162,57.181-17.324v14.686C365.322,36.204,368.318,42.443,373.55,46.623L373.55,46.623z M226.179,83.929
		l40.88-59.05c4.449-6.43,11.777-10.266,19.603-10.266c5.151,0,10.163,1.797,14.27,4.866
		c-18.719,10.997-34.969,26.289-47.199,45.198l-27.721,42.845c-3.434,5.312-8.103,9.52-13.48,12.392
		C214.094,107.025,218.704,94.728,226.179,83.929L226.179,83.929z M166.134,138.823h16.527v36.532c0,4.026-3.273,7.306-7.306,7.306
		h-58.452c-4.033,0-7.307-3.28-7.307-7.306v-49.092l44.139,11.033C157.79,138.311,161.962,138.823,166.134,138.823L166.134,138.823
		z M14.613,146.129c0-12.084,9.834-21.919,21.919-21.919c3.368,0,6.627,0.833,9.593,2.28
		c-11.617,7.665-21.568,17.616-29.233,29.233C15.446,152.756,14.613,149.497,14.613,146.129z M58.452,344.616
		c0-4.063,0.321-8.073,0.87-12.041l6.137,18.427l-7.007,28.034V344.616z M102.115,343.229l-14.211,56.858
		c-0.497,1.994-0.139,4.105,1.008,5.823l13.378,20.078v12.398H73.064v-14.612c0-1.133-0.263-2.258-0.767-3.267l-6.101-12.201
		l13.955-55.829c0.344-1.352,0.285-2.762-0.153-4.084l-13.465-40.404c2.301-4.991,5.027-9.806,8.278-14.357l1.117-1.593
		c4.216-5.904,7.701-12.181,10.544-18.704c0.606,0.233,1.198,0.489,1.804,0.723L102.115,343.229z M299.564,426.207v12.18h-29.226
		v-14.612c0-1.439-0.431-2.857-1.228-4.056l-13.386-20.077v-96.169l15.563-10.374l6.37,101.903c0.089,1.417,0.593,2.79,1.447,3.923
		L299.564,426.207z M324.194,104.139l-3.938-5.903l-12.158,8.103l3.938,5.903c4.033,6.05,9.425,10.872,15.62,14.182l-16.476,49.443
		c-2.864,8.57-4.311,17.492-4.311,26.522v12.371c0,23.197-11.522,44.745-30.833,57.611l-31.673,21.115
		c-2.032,1.359-3.252,3.639-3.252,6.079v102.29c0,1.439,0.432,2.857,1.227,4.056l13.386,20.078v12.398h-14.612h-29.226
		l-0.014-21.51l7.138-128.499c7.43-2.856,14.284-7.196,19.962-12.866l-10.332-10.332c-7.927,7.92-18.901,12.466-30.11,12.466
		h-11.522c-32.966,0-65.093-6.139-95.685-18.105c2.375-8.702,3.661-17.733,3.661-26.946v-13.4H80.371v13.4
		c0,18.391-5.648,36.006-16.352,50.984l-1.118,1.593c-12.472,17.44-19.063,37.993-19.063,59.445v49.933
		c0,1.132,0.263,2.257,0.767,3.266l13.846,27.684v12.889H14.605l-0.007-21.437l7.321-110.079v-21.467
		c0-10.587-1.308-21.166-3.873-31.446c-2.279-9.119-3.434-18.508-3.434-27.911v-14.16c0-45.877,35.444-83.549,80.371-87.283v50.75
		c0,12.084,9.834,21.919,21.919,21.919h21.919V226.5h-14.613v14.613h43.839V226.5h-14.613v-29.226h21.919
		c12.084,0,21.919-9.835,21.919-21.919v-36.656c16.673-0.629,31.906-9.163,41.011-23.242l27.721-42.845
		c8.052-12.443,18.04-23.139,29.408-31.863c11.464,33.463,37.249,59.774,70.808,71.874c-1.265,2.229-2.478,4.486-3.588,6.802
		c-4.617-1.637-9.542-2.521-14.598-2.521C338.435,116.903,329.528,112.132,324.194,104.139L324.194,104.139z M438.387,121.368
		c0,4.588-1.79,8.906-5.033,12.158l-3.953,3.96c-10.887-4.545-20.407-12.1-26.969-21.942l-1.797-2.696l-12.158,8.11l1.798,2.688
		c7.036,10.558,16.754,19.143,27.977,24.937c-6.949,6.693-19.297,5.955-25.347-1.6l-11.076-13.846
		c-1.93-2.412-4.1-4.559-6.437-6.474c8.271-17.638,21.554-32.733,38.029-43.144c5.348,5.684,10.587,11.471,15.57,17.455
		l5.399,6.481c2.586,3.091,3.996,7,3.996,11.011V121.368z"/>
	<path d="M354.363,43.839c-6.043,0-10.96,4.917-10.96,10.959s4.917,10.96,10.96,10.96
		c6.042,0,10.959-4.917,10.959-10.96S360.405,43.839,354.363,43.839z"/>
</g>

</defs>
</svg>