<?xml version="1.0" encoding="utf-8"?>
<!DOCTYPE svg PUBLIC "-//W3C//DTD SVG 1.1//EN" "http://www.w3.org/Graphics/SVG/1.1/DTD/svg11.dtd">
<svg version="1.1" xmlns="http://www.w3.org/2000/svg" xmlns:xlink="http://www.w3.org/1999/xlink">
<defs>
<style>
		.img { display: none }
		.img:target { display: inline }
</style>
<g id="calendar" width="453.54px" height="453.54px" viewBox="0 0 453.54 453.54">
	<path d="M442.254,2.823H11.289c-6.157,0-11.287,5.131-11.287,11.287v425.322c0,6.156,5.13,11.287,11.287,11.287
		h430.965c6.157,0,11.287-5.131,11.287-11.287V14.11C453.541,7.954,448.411,2.823,442.254,2.823z M20.523,25.397h410.443v65.671
		h-35.913V77.729c0-19.496-15.905-35.914-35.914-35.914c-19.496,0-35.914,15.905-35.914,35.914v13.339h-16.931V77.729
		c0-19.496-15.904-35.914-35.914-35.914c-19.496,0-35.914,15.905-35.914,35.914v13.339h-16.931V77.729
		c0-19.496-15.904-35.914-35.913-35.914c-19.496,0-35.914,15.905-35.914,35.914v13.339h-16.931V77.729
		c0-19.496-15.905-35.914-35.914-35.914c-19.496,0-35.914,15.905-35.914,35.914v13.339H20.523V25.397z M372.479,77.729v49.253
		c0,7.183-6.156,13.34-13.339,13.34s-13.34-6.157-13.34-13.34v-24.626V77.729c0-7.183,6.157-13.34,13.34-13.34
		S372.479,70.547,372.479,77.729z M284.233,77.729v49.253c0,7.183-6.156,13.34-13.339,13.34c-7.184,0-13.34-6.157-13.34-13.34
		v-24.626V77.729c0-7.183,6.156-13.34,13.34-13.34C278.077,64.39,284.233,70.547,284.233,77.729z M195.988,77.729v49.253
		c0,7.183-6.156,13.34-13.34,13.34c-7.183,0-13.339-6.157-13.339-13.34v-24.626V77.729c0-7.183,6.156-13.34,13.339-13.34
		C189.832,64.39,195.988,70.547,195.988,77.729z M108.256,77.729v24.627v24.626c0,7.183-6.156,13.34-13.34,13.34
		c-7.183,0-13.339-6.157-13.339-13.34v-24.626V77.729c0-7.183,6.156-13.34,13.339-13.34
		C102.1,64.39,108.256,70.547,108.256,77.729z M433.02,428.658H22.576V113.644h36.427v13.339
		c0,19.496,15.904,35.914,35.913,35.914c19.496,0,35.914-15.904,35.914-35.914v-13.339h16.931v13.339
		c0,19.496,15.905,35.914,35.914,35.914c19.496,0,35.914-15.904,35.914-35.914v-13.339h16.931v13.339
		c0,19.496,15.904,35.914,35.914,35.914c19.496,0,35.913-15.904,35.913-35.914v-13.339h16.932v13.339
		c0,19.496,15.904,35.914,35.913,35.914c19.496,0,35.914-15.904,35.914-35.914v-13.339h35.914V428.658z"/>
	<path d="M368.375,216.768H85.682c-6.156,0-11.287,5.13-11.287,11.287c0,6.156,5.131,11.287,11.287,11.287
		h282.693c6.156,0,11.287-5.131,11.287-11.287C379.662,221.385,374.531,216.768,368.375,216.768z"/>
	<path d="M368.375,271.664H85.682c-6.156,0-11.287,5.131-11.287,11.287s5.131,11.287,11.287,11.287h282.693
		c6.156,0,11.287-5.131,11.287-11.287S374.531,271.664,368.375,271.664z"/>
	<path d="M368.375,326.561H85.168c-6.156,0-11.287,5.131-11.287,11.287s5.131,11.287,11.287,11.287h282.693
		c6.156,0,11.287-5.131,11.287-11.287S374.531,326.561,368.375,326.561z"/>
</g>

<g id="comments" width="453.54px" height="453.54px" viewBox="0 0 453.54 453.54">
	<path d="M397.699,82.066c-8.256-31.078-36.905-53.9-69.439-53.9H71.869c-39.333,0-71.867,32.049-71.867,71.867
		v118.969c0,33.506,23.793,62.642,55.842,69.925c7.77,31.078,35.934,53.9,69.439,53.9h10.684v71.867
		c0,3.885,2.428,7.77,5.826,9.712c1.457,0.485,2.914,0.971,4.856,0.971c2.428,0,4.37-0.971,6.313-2.428l103.916-80.122h124.796
		c39.333,0,71.867-32.049,71.867-71.867V151.991C453.541,118,429.748,89.35,397.699,82.066z M53.416,151.991v114.113
		c-18.938-7.284-32.049-25.736-32.049-47.103V100.033c0-27.679,22.823-50.501,50.502-50.501h256.876
		c20.395,0,38.361,12.625,46.131,30.592H125.283C85.951,80.124,53.416,112.173,53.416,151.991z M432.661,270.96h-0.485
		c0,27.679-22.823,50.501-50.502,50.501H253.479c-2.428,0-4.855,0.972-6.313,2.429l-89.834,69.438v-61.184
		c0-5.827-4.855-10.684-10.683-10.684h-21.366c-27.679,0-50.501-22.822-50.501-50.501V151.991
		c0-27.679,22.822-50.501,50.501-50.501H382.16c27.679,0,50.501,22.822,50.501,50.501V270.96z"/>
	<path d="M362.736,148.592H144.222c-5.827,0-10.684,4.856-10.684,10.683c0,5.827,4.856,10.684,10.684,10.684
		h218.515c5.827,0,10.683-4.856,10.683-10.684C373.419,153.448,368.563,148.592,362.736,148.592z"/>
	<path d="M362.736,195.208H144.222c-5.827,0-10.684,4.856-10.684,10.684s4.856,10.683,10.684,10.683h218.515
		c5.827,0,10.683-4.855,10.683-10.683S368.563,195.208,362.736,195.208z"/>
	<path d="M362.736,242.311H144.222c-5.827,0-10.684,4.855-10.684,10.683s4.856,10.684,10.684,10.684h218.515
		c5.827,0,10.683-4.856,10.683-10.684C373.419,246.681,368.563,242.311,362.736,242.311z"/>
</g>

<g id="facebook" width="453.54px" height="453.54px" viewBox="0 0 453.54 453.54">
	<path d="M453.524,228.149c0-125.233-101.52-226.753-226.752-226.753C101.54,1.396,0.019,102.917,0.019,228.149
		c0,113.18,82.92,206.986,191.322,223.998V293.695h-57.573v-65.546h57.573v-49.957c0-56.83,33.854-88.222,85.648-88.222
		c24.809,0,50.759,4.429,50.759,4.429v55.803h-28.592c-28.169,0-36.954,17.479-36.954,35.411v42.536h62.889l-10.054,65.546h-52.835
		v158.452C370.605,435.136,453.524,341.329,453.524,228.149z"/>
</g>

<g id="instagram" width="453.54px" height="453.54px" viewBox="0 0 453.54 453.54">
	<path d="M226.771,0.001c-61.606,0-69.298,0.284-93.486,1.361c-24.15,1.134-40.592,4.932-55.048,10.544
		c-14.91,5.783-27.572,13.55-40.177,26.154S17.67,63.308,11.906,78.238c-5.612,14.456-9.43,30.897-10.544,55.048
		c-1.135,24.188-1.361,31.88-1.361,93.486c0,61.606,0.284,69.297,1.361,93.486c1.134,24.133,4.932,40.592,10.544,55.049
		c5.783,14.892,13.55,27.571,26.154,40.176c12.604,12.586,25.247,20.391,40.177,26.154c14.475,5.594,30.916,9.431,55.048,10.545
		c24.188,1.134,31.88,1.36,93.486,1.36c61.605,0,69.297-0.283,93.486-1.36c24.132-1.134,40.592-4.951,55.048-10.545
		c14.892-5.782,27.571-13.568,40.176-26.154c12.586-12.604,20.391-25.228,26.154-40.176c5.594-14.457,9.431-30.916,10.545-55.049
		c1.134-24.188,1.361-31.88,1.361-93.486c0-61.606-0.284-69.298-1.361-93.486c-1.134-24.132-4.951-40.61-10.545-55.048
		c-5.782-14.91-13.568-27.572-26.154-40.177c-12.604-12.604-25.228-20.39-40.176-26.154c-14.456-5.612-30.916-9.43-55.048-10.544
		C296.068,0.228,288.377,0.001,226.771,0.001z M226.771,40.821c60.528,0,67.747,0.302,91.653,1.341
		c22.109,1.04,34.109,4.706,42.084,7.843c10.621,4.101,18.142,9.015,26.116,16.933c7.919,7.937,12.832,15.477,16.933,26.097
		c3.1,7.976,6.803,19.976,7.805,42.085c1.077,23.925,1.323,31.105,1.323,91.653c0,60.547-0.284,67.748-1.398,91.653
		c-1.153,22.11-4.838,34.11-7.956,42.085c-4.233,10.62-9.052,18.142-16.989,26.116c-7.918,7.918-15.571,12.832-26.078,16.933
		c-7.938,3.099-20.126,6.803-42.236,7.805c-24.075,1.077-31.162,1.322-91.823,1.322c-60.68,0-67.767-0.283-91.822-1.398
		c-22.13-1.152-34.318-4.838-42.255-7.955c-10.753-4.233-18.142-9.053-26.061-16.989c-7.955-7.918-13.039-15.571-17.007-26.078
		c-3.118-7.938-6.784-20.126-7.938-42.236c-0.851-23.811-1.152-31.162-1.152-91.54c0-60.396,0.302-67.767,1.152-91.861
		c1.153-22.11,4.819-34.28,7.938-42.217c3.968-10.771,9.052-18.142,17.007-26.098c7.919-7.918,15.308-13.021,26.061-16.97
		c7.937-3.137,19.861-6.822,41.971-7.956c24.095-0.851,31.181-1.134,91.823-1.134L226.771,40.821z M226.771,110.326
		c-64.347,0-116.446,52.157-116.446,116.446c0,64.346,52.156,116.447,116.446,116.447c64.346,0,116.446-52.157,116.446-116.447
		C343.218,162.425,291.061,110.326,226.771,110.326z M226.771,302.362c-41.764,0-75.59-33.826-75.59-75.59
		c0-41.764,33.826-75.59,75.59-75.59s75.59,33.826,75.59,75.59C302.361,268.536,268.535,302.362,226.771,302.362z M375.041,105.733
		c0,15.023-12.208,27.213-27.212,27.213c-15.023,0-27.213-12.208-27.213-27.213c0-15.004,12.208-27.193,27.213-27.193
		C362.814,78.521,375.041,90.729,375.041,105.733z"/>
</g>

<g id="twitter" width="453.54px" height="453.54px" viewBox="0 0 453.54 453.54">
	<path d="M451.252,87.231c-16.619,7.306-34.366,12.282-53.052,14.554c19.042-11.474,33.689-29.559,40.62-51.137
		c-17.859,10.423-37.653,18.01-58.724,22.235c-16.826-18.01-40.809-29.277-67.437-29.277c-51.023,0-92.396,41.371-92.396,92.338
		c0,7.324,0.845,14.366,2.385,21.107c-76.808-3.624-144.883-40.507-190.442-96.263C24.188,74.348,19.7,90.104,19.7,107.269
		c0,32.113,16.338,60.338,41.089,76.92c-15.155-0.489-29.408-4.657-41.84-11.569v1.146c0,44.789,31.792,82.14,74.103,90.648
		c-7.756,2.084-15.944,3.211-24.337,3.211c-5.896,0-11.55-0.563-17.202-1.615c11.85,36.677,45.916,63.419,86.46,64.17
		c-31.55,24.771-71.531,39.53-114.592,39.53c-7.324,0-14.628-0.433-21.972-1.258c41.109,26.178,89.541,41.483,141.917,41.483
		c170.028,0,262.893-140.771,262.893-262.648c0-3.926,0-7.888-0.281-11.831c18.048-12.939,33.804-29.296,46.198-47.851
		L451.252,87.231L451.252,87.231z"/>
</g>

<g id="youtube" width="453.54px" height="453.54px" viewBox="0 0 453.54 453.54">
	<path d="M443.992,117.27c-5.344-19.149-20.308-34.113-39.458-39.457c-35.338-9.468-177.561-9.468-177.561-9.468
		S85.109,68.155,49.412,77.813C30.263,83.156,15.299,98.12,9.954,117.27c-6.698,36.18-10.001,72.906-9.864,109.7
		c-0.111,36.655,3.191,73.241,9.864,109.284c5.345,19.15,20.309,34.114,39.458,39.458c35.301,9.487,177.562,9.487,177.562,9.487
		s141.845,0,177.561-9.487c19.149-5.344,34.114-20.308,39.458-39.458c6.534-36.056,9.697-72.642,9.449-109.284
		C453.715,190.188,450.552,153.463,443.992,117.27L443.992,117.27z M181.581,294.831v-135.93l118.375,68.068L181.581,294.831z"/>
</g>

<g id="menu" width="453.54px" height="453.54px" viewBox="0 0 453.54 453.54">
	<path d="M184.252,354.33c0,46.966-38.074,85.04-85.04,85.04s-85.04-38.074-85.04-85.04c0-46.965,38.074-85.039,85.04-85.039
		S184.252,307.365,184.252,354.33z M155.905,354.33c0-31.311-25.382-56.692-56.693-56.692S42.52,323.02,42.52,354.33
		c0,31.312,25.382,56.693,56.693,56.693S155.905,385.642,155.905,354.33z M439.37,354.33c0,46.966-38.074,85.04-85.039,85.04
		c-46.967,0-85.04-38.074-85.04-85.04c0-46.965,38.073-85.039,85.04-85.039C401.296,269.291,439.37,307.365,439.37,354.33z
		 M411.023,354.33c0-31.311-25.382-56.692-56.692-56.692s-56.693,25.382-56.693,56.692c0,31.312,25.383,56.693,56.693,56.693
		S411.023,385.642,411.023,354.33z"/>
	<rect x="170.079" y="340.157" width="113.386" height="28.347"/>
	<path d="M184.252,99.212c0,46.966-38.074,85.04-85.04,85.04s-85.04-38.074-85.04-85.04c0-46.965,38.074-85.039,85.04-85.039
		S184.252,52.247,184.252,99.212z M155.905,99.212c0-31.311-25.382-56.692-56.693-56.692S42.52,67.901,42.52,99.212
		c0,31.312,25.382,56.693,56.693,56.693S155.905,130.523,155.905,99.212z M439.37,99.212c0,46.966-38.074,85.04-85.039,85.04
		c-46.967,0-85.04-38.074-85.04-85.04c0-46.965,38.073-85.039,85.04-85.039C401.296,14.173,439.37,52.247,439.37,99.212z
		 M411.023,99.212c0-31.311-25.382-56.692-56.692-56.692s-56.693,25.382-56.693,56.692c0,31.312,25.383,56.693,56.693,56.693
		S411.023,130.523,411.023,99.212z"/>
	<rect x="170.079" y="85.039" width="113.386" height="28.347"/>
</g>

<g id="close" width="453.54px" height="453.54px" viewBox="0 0 453.54 453.54">
	<rect x="-39.577" y="212.505" transform="matrix(0.7071 0.7071 -0.7071 0.7071 226.7712 -93.9317)" width="532.697" height="28.535"/>
	<rect x="-39.577" y="212.504" transform="matrix(-0.7071 0.7071 -0.7071 -0.7071 547.4754 226.7715)" width="532.697" height="28.535"/>
</g>

<g id="logo" width="1730px" height="453.54px" viewBox="0 0 1730 453.54" fill="#000">
	<path fill="red" d="M212.652,131.042c0,0,0-127.64-84.446-127.64c-85.74,0-85.74,127.64-85.74,127.64
		c-21.273,10.637-21.273,42.547-21.273,42.547L10.556,450.142h31.91V183.993c0,0,0-31.678,21.273-31.678
		c0,0,0.004-127.64,63.822-127.64s63.818,127.64,63.818,127.64c21.273,0,21.273,23.269,21.273,31.91v265.917h31.91l-10.637-276.553
		C233.925,173.589,233.925,141.679,212.652,131.042z"/>
	<g>
		<path d="M416.27,144.201l44.1-93.74h21.598L420.34,172.809h-15.604L380.764,50.46h20.127L416.27,144.201z"/>
		<path d="M503.904,172.809H483.55L504.808,50.46h20.354L503.904,172.809z M520.752,5.795c3.467-0.15,6.35,0.887,8.65,3.11
			c2.299,2.224,3.449,5.145,3.449,8.763c-0.076,3.544-1.227,6.445-3.449,8.707c-2.224,2.262-5.108,3.468-8.65,3.618
			c-3.544,0.152-6.445-0.866-8.707-3.053c-2.262-2.186-3.355-5.05-3.279-8.594c0.074-3.542,1.205-6.482,3.392-8.82
			C514.344,7.191,517.208,5.947,520.752,5.795z"/>
		<path d="M613.136,139.678c1.131-8.442-3.505-14.398-13.908-17.866l-21.259-6.219c-17.942-6.18-26.612-16.433-26.007-30.757
			c0.526-10.779,5.445-19.619,14.756-26.517c9.31-6.897,20.258-10.271,32.849-10.12c12.363,0.152,22.407,3.751,30.135,10.799
			c7.726,7.05,11.438,16.227,11.138,27.534l-20.354-0.113c0.15-6.106-1.772-11.082-5.767-14.926
			c-3.997-3.845-9.311-5.841-15.944-5.993c-7.086-0.15-13.193,1.583-18.318,5.202c-4.749,3.392-7.502,7.841-8.254,13.343
			c-0.98,7.087,3.354,12.251,13.004,15.492l10.29,2.827c14.021,3.619,23.972,8.331,29.852,14.135
			c5.88,5.806,8.594,13.004,8.142,21.598c-0.453,7.615-2.94,14.248-7.463,19.901c-4.523,5.654-10.555,9.97-18.092,12.947
			c-7.539,2.977-15.567,4.354-24.085,4.127c-12.967-0.152-23.672-3.938-32.114-11.364c-8.444-7.424-12.515-16.979-12.212-28.665
			l20.467,0.113c0,6.86,2.186,12.364,6.559,16.509c4.371,4.147,10.364,6.219,17.979,6.219c7.463,0.152,13.909-1.413,19.336-4.692
			C609.291,149.911,612.381,145.407,613.136,139.678z"/>
		<path d="M676.458,172.809h-20.354L677.363,50.46h20.354L676.458,172.809z M693.307,5.795c3.467-0.15,6.35,0.887,8.65,3.11
			c2.299,2.224,3.449,5.145,3.449,8.763c-0.076,3.544-1.227,6.445-3.449,8.707c-2.224,2.262-5.108,3.468-8.65,3.618
			c-3.544,0.152-6.445-0.866-8.707-3.053c-2.262-2.186-3.355-5.05-3.279-8.594c0.074-3.542,1.205-6.482,3.392-8.82
			C686.898,7.191,689.763,5.947,693.307,5.795z"/>
		<path d="M763.98,20.834l-5.202,29.626h22.276l-2.827,16.17h-22.163l-12.778,76.291c-0.226,1.965-0.265,3.779-0.113,5.442
			c0.526,5.894,3.731,8.841,9.611,8.841c2.488,0,5.804-0.376,9.951-1.131l-1.583,16.873c-4.901,1.339-9.876,2.011-14.926,2.011
			c-8.141-0.152-14.248-3.146-18.318-8.99c-4.071-5.841-5.654-13.7-4.749-23.576l12.438-75.761H714l2.827-16.17h21.598l5.202-29.626
			H763.98z"/>
	</g>
	<g>
		<path d="M381.298,450.142V207.137h83.282c27.481,0,48.401,5.508,62.754,16.523c14.353,11.015,21.53,27.429,21.53,49.235
			c0,11.128-3.004,21.142-9.013,30.042c-6.008,8.903-14.799,15.801-26.37,20.695c13.128,3.563,23.283,10.265,30.459,20.111
			c7.176,9.848,10.765,21.671,10.765,35.467c0,22.81-7.317,40.334-21.947,52.573c-14.632,12.24-35.578,18.358-62.837,18.358H381.298
			z M423.523,309.446h41.391c13.127,0,23.392-2.976,30.793-8.93c7.398-5.951,11.099-14.379,11.099-25.285
			c0-12.017-3.421-20.695-10.264-26.036s-17.499-8.011-31.961-8.011h-41.057V309.446z M423.523,340.489v75.604h46.899
			c13.24,0,23.587-3.268,31.043-9.802c7.453-6.535,11.182-15.621,11.182-27.252c0-25.145-12.908-37.995-38.72-38.551H423.523z"/>
		<path d="M732.954,393.563h-94.131l-19.694,56.579h-43.894l91.794-243.005h37.886l91.961,243.005h-44.062L732.954,393.563z
			 M650.673,359.516h70.432l-35.216-100.807L650.673,359.516z"/>
		<path d="M879.157,207.137l70.098,186.259l69.931-186.259h54.576v243.005h-42.059V370.03l4.173-107.149l-71.767,187.261H933.9
			l-71.6-187.094l4.173,106.982v80.111h-42.059V207.137H879.157z"/>
		<path d="M1198.268,322.297l55.911-115.16h46.732l-81.447,153.547v89.458h-42.392v-89.458l-81.613-153.547h46.897L1198.268,322.297
			z"/>
		<path d="M1438.269,393.563h-94.131l-19.694,56.579h-43.895l91.795-243.005h37.886l91.961,243.005h-44.061L1438.269,393.563z
			 M1355.987,359.516h70.432l-35.216-100.807L1355.987,359.516z"/>
		<path d="M1722.498,450.142h-42.226l-108.317-172.406v172.406h-42.226V207.137h42.226l108.651,173.074V207.137h41.892V450.142z"/>
	</g>
</g>

</defs>
</svg>